<?xml version="1.0" encoding="UTF-8" standalone="no"?>
<!-- Created with Inkscape (http://www.inkscape.org/) -->

<svg
   xmlns:dc="http://purl.org/dc/elements/1.1/"
   xmlns:cc="http://creativecommons.org/ns#"
   xmlns:rdf="http://www.w3.org/1999/02/22-rdf-syntax-ns#"
   xmlns:svg="http://www.w3.org/2000/svg"
   xmlns="http://www.w3.org/2000/svg"
   xmlns:sodipodi="http://sodipodi.sourceforge.net/DTD/sodipodi-0.dtd"
   xmlns:inkscape="http://www.inkscape.org/namespaces/inkscape"
   width="64"
   height="64"
   viewBox="0 0 64.000001 64.000001"
   id="svg2"
   version="1.1"
   inkscape:version="0.91 r13725"
   sodipodi:docname="icon.svg"
   inkscape:export-filename="C:\Users\Kamiku\eclipse-workspace\KStars\icon.png"
   inkscape:export-xdpi="90"
   inkscape:export-ydpi="90">
  <defs
     id="defs4" />
  <sodipodi:namedview
     id="base"
     pagecolor="#ffffff"
     bordercolor="#cc0000"
     borderopacity="1"
     inkscape:pageopacity="0.0"
     inkscape:pageshadow="2"
     inkscape:zoom="6.8828125"
     inkscape:cx="-40.994145"
     inkscape:cy="37.215153"
     inkscape:document-units="px"
     inkscape:current-layer="layer1"
     showgrid="false"
     units="px"
     borderlayer="true"
     inkscape:window-width="1920"
     inkscape:window-height="1056"
     inkscape:window-x="-9"
     inkscape:window-y="-9"
     inkscape:window-maximized="1" />
  <metadata
     id="metadata7">
    <rdf:RDF>
      <cc:Work
         rdf:about="">
        <dc:format>image/svg+xml</dc:format>
        <dc:type
           rdf:resource="http://purl.org/dc/dcmitype/StillImage" />
        <dc:title></dc:title>
      </cc:Work>
    </rdf:RDF>
  </metadata>
  <g
     inkscape:label="Calque 1"
     inkscape:groupmode="layer"
     id="layer1"
     transform="translate(0,-988.36216)">
    <path
       sodipodi:type="star"
       style="color:#000000;clip-rule:nonzero;display:inline;overflow:visible;visibility:visible;opacity:1;isolation:auto;mix-blend-mode:normal;color-interpolation:sRGB;color-interpolation-filters:linearRGB;solid-color:#000000;solid-opacity:1;fill:#d45500;fill-opacity:1;fill-rule:evenodd;stroke:#0000ff;stroke-width:1;stroke-linecap:round;stroke-linejoin:round;stroke-miterlimit:4;stroke-dasharray:none;stroke-dashoffset:0;stroke-opacity:1;color-rendering:auto;image-rendering:auto;shape-rendering:auto;text-rendering:auto;enable-background:accumulate"
       id="path4141-7"
       sodipodi:sides="5"
       sodipodi:cx="53.17588"
       sodipodi:cy="1017.6345"
       sodipodi:r1="19.257839"
       sodipodi:r2="9.8200274"
       sodipodi:arg1="0.85480522"
       sodipodi:arg2="1.4831238"
       inkscape:flatsided="false"
       inkscape:rounded="0.11"
       inkscape:randomized="0"
       d="m 65.816061,1032.1635 c -1.054012,0.917 -10.388629,-4.869 -11.780336,-4.7467 -1.391708,0.1224 -9.573843,7.448 -10.77166,6.7289 -1.197818,-0.719 1.420394,-11.3847 0.873991,-12.6705 -0.546402,-1.2858 -10.041916,-6.8037 -9.728195,-8.1651 0.31372,-1.3614 11.266481,-2.1672 12.320493,-3.0842 1.054012,-0.917 3.367597,-11.65292 4.759304,-11.77525 1.391707,-0.12233 5.542675,10.04535 6.740492,10.76445 1.197817,0.719 12.123206,-0.3982 12.669608,0.8876 0.546402,1.2858 -7.84092,8.3756 -8.154641,9.737 -0.31372,1.3614 4.124956,11.4068 3.070944,12.3238 z"
       inkscape:transform-center-x="1.5676729"
       inkscape:transform-center-y="-0.34696173"
       transform="matrix(0.91268997,-0.40865268,0.40865268,0.91268997,-420.24974,109.93486)" />
    <path
       sodipodi:type="star"
       style="color:#000000;clip-rule:nonzero;display:inline;overflow:visible;visibility:visible;opacity:1;isolation:auto;mix-blend-mode:normal;color-interpolation:sRGB;color-interpolation-filters:linearRGB;solid-color:#000000;solid-opacity:1;fill:#d45500;fill-opacity:1;fill-rule:evenodd;stroke:#0000ff;stroke-width:1;stroke-linecap:round;stroke-linejoin:round;stroke-miterlimit:4;stroke-dasharray:none;stroke-dashoffset:0;stroke-opacity:1;color-rendering:auto;image-rendering:auto;shape-rendering:auto;text-rendering:auto;enable-background:accumulate"
       id="path4141"
       sodipodi:sides="5"
       sodipodi:cx="23.972757"
       sodipodi:cy="1007.7583"
       sodipodi:r1="19.257839"
       sodipodi:r2="9.8200274"
       sodipodi:arg1="0.85480522"
       sodipodi:arg2="1.4831238"
       inkscape:flatsided="false"
       inkscape:rounded="0.11"
       inkscape:randomized="0"
       d="m 36.612938,1022.2872 c -1.054012,0.917 -10.388629,-4.8689 -11.780337,-4.7466 -1.391707,0.1223 -9.573842,7.448 -10.771659,6.7289 -1.197818,-0.719 1.420393,-11.3847 0.873991,-12.6705 -0.546402,-1.2858 -10.0419157,-6.8038 -9.7281955,-8.1651 0.3137203,-1.3614 11.2664815,-2.1673 12.3204935,-3.0843 1.054012,-0.91694 3.367597,-11.65285 4.759304,-11.77517 1.391707,-0.12233 5.542674,10.04535 6.740492,10.76441 1.197817,0.71906 12.123205,-0.39817 12.669607,0.88766 0.546403,1.2858 -7.84092,8.3755 -8.15464,9.7369 -0.31372,1.3614 4.124956,11.4069 3.070944,12.3238 z"
       inkscape:transform-center-x="1.9167507"
       inkscape:transform-center-y="-2.0174017"
       transform="matrix(0.98666272,-0.16277803,0.16277803,0.98666272,-164.57701,18.558996)" />
    <path
       sodipodi:type="star"
       style="color:#000000;clip-rule:nonzero;display:inline;overflow:visible;visibility:visible;opacity:1;isolation:auto;mix-blend-mode:normal;color-interpolation:sRGB;color-interpolation-filters:linearRGB;solid-color:#000000;solid-opacity:1;fill:#d45500;fill-opacity:1;fill-rule:evenodd;stroke:#0000ff;stroke-width:1;stroke-linecap:round;stroke-linejoin:round;stroke-miterlimit:4;stroke-dasharray:none;stroke-dashoffset:0;stroke-opacity:1;color-rendering:auto;image-rendering:auto;shape-rendering:auto;text-rendering:auto;enable-background:accumulate"
       id="path4141-8"
       sodipodi:sides="5"
       sodipodi:cx="23.827414"
       sodipodi:cy="1028.0227"
       sodipodi:r1="19.257839"
       sodipodi:r2="9.8200274"
       sodipodi:arg1="0.85480522"
       sodipodi:arg2="1.4831238"
       inkscape:flatsided="false"
       inkscape:rounded="0.11"
       inkscape:randomized="0"
       d="m 36.467594,1042.5516 c -1.054012,0.917 -10.388629,-4.8689 -11.780336,-4.7466 -1.391707,0.1223 -9.573843,7.448 -10.77166,6.7289 -1.197818,-0.719 1.420394,-11.3847 0.873992,-12.6705 -0.546403,-1.2858 -10.0419165,-6.8038 -9.7281962,-8.1651 0.3137202,-1.3614 11.2664812,-2.1673 12.3204932,-3.0842 1.054012,-0.917 3.367597,-11.6529 4.759304,-11.7753 1.391707,-0.1223 5.542675,10.0454 6.740492,10.7644 1.197817,0.7191 12.123206,-0.3981 12.669608,0.8877 0.546402,1.2858 -7.84092,8.3756 -8.154641,9.7369 -0.31372,1.3614 4.124956,11.4069 3.070944,12.3238 z"
       inkscape:transform-center-x="2.0481331"
       inkscape:transform-center-y="-1.0946097"
       transform="matrix(0.95320458,-0.30232603,0.30232603,0.95320458,-309.89838,59.733652)" />
  </g>
</svg>
